<?xml version="1.0" encoding="UTF-8"?>
<svg xmlns="http://www.w3.org/2000/svg" xmlns:xlink="http://www.w3.org/1999/xlink" width="512px" height="512px" viewBox="0 0 512 512" version="1.1">
<g id="surface1">
<path style=" stroke:none;fill-rule:nonzero;fill:rgb(96.862745%,41.960785%,60.000002%);fill-opacity:1;" d="M 250.175781 218.957031 L 230.960938 230.484375 C 224.285156 234.488281 216.972656 237.316406 209.335938 238.84375 L 186.949219 243.320312 C 172.164062 246.167969 159.09375 254.710938 150.554688 267.113281 C 144.289062 276.566406 140.097656 287.234375 138.253906 298.421875 C 137.957031 300.003906 138.582031 301.617188 139.867188 302.585938 C 141.15625 303.554688 142.878906 303.710938 144.316406 302.988281 C 160.929688 294.449219 180.617188 294.339844 197.324219 302.6875 Z M 250.175781 218.957031 "/>
<path style=" stroke:none;fill-rule:nonzero;fill:rgb(27.450982%,28.627452%,39.607844%);fill-opacity:1;" d="M 343.175781 311.945312 L 331.648438 331.160156 C 327.640625 337.835938 324.8125 345.152344 323.285156 352.785156 L 318.808594 375.175781 C 315.964844 389.960938 307.417969 403.03125 295.015625 411.566406 C 285.566406 417.832031 274.894531 422.027344 263.707031 423.871094 C 262.125 424.164062 260.511719 423.539062 259.542969 422.253906 C 258.578125 420.96875 258.421875 419.246094 259.140625 417.804688 C 267.683594 401.195312 267.792969 381.507812 259.441406 364.796875 Z M 343.175781 311.945312 "/>
<path style=" stroke:none;fill-rule:nonzero;fill:rgb(89.411765%,90.980393%,100%);fill-opacity:1;" d="M 468.839844 93.28125 C 279.261719 83.640625 197.324219 302.683594 197.324219 302.683594 L 240.542969 345.902344 C 240.542969 345.902344 448.152344 307.4375 468.839844 93.28125 Z M 468.839844 93.28125 "/>
<path style=" stroke:none;fill-rule:nonzero;fill:rgb(96.862745%,41.960785%,60.000002%);fill-opacity:1;" d="M 204.671875 419.574219 C 204.964844 419.226562 205.25 418.882812 205.535156 418.542969 C 239.328125 377.351562 184.773438 322.792969 143.578125 356.589844 C 143.238281 356.871094 142.894531 357.15625 142.546875 357.453125 C 128.640625 370.558594 118.808594 387.402344 114.238281 405.960938 C 113.011719 410.96875 111.703125 415.953125 110.066406 420.84375 C 106.273438 432.167969 99.222656 451.753906 90.882812 467.609375 C 90.332031 468.652344 90.523438 469.929688 91.359375 470.765625 C 92.191406 471.597656 93.472656 471.789062 94.511719 471.238281 C 110.367188 462.90625 129.957031 455.847656 141.277344 452.058594 C 146.171875 450.421875 151.152344 449.109375 156.160156 447.882812 C 174.71875 443.3125 191.5625 433.480469 204.671875 419.574219 Z M 204.671875 419.574219 "/>
<path style=" stroke:none;fill-rule:nonzero;fill:rgb(27.450982%,28.627452%,39.607844%);fill-opacity:1;" d="M 399.011719 194.015625 C 399.011719 171.207031 380.523438 152.714844 357.710938 152.714844 C 334.898438 152.714844 316.40625 171.207031 316.40625 194.015625 C 316.40625 216.828125 334.898438 235.320312 357.710938 235.320312 C 380.523438 235.320312 399.011719 216.828125 399.011719 194.015625 Z M 399.011719 194.015625 "/>
<path style=" stroke:none;fill-rule:nonzero;fill:rgb(100%,100%,100%);fill-opacity:1;" d="M 382.308594 194.015625 C 382.308594 180.429688 371.296875 169.417969 357.710938 169.417969 C 344.125 169.417969 333.113281 180.429688 333.113281 194.015625 C 333.113281 207.601562 344.125 218.613281 357.710938 218.613281 C 371.296875 218.613281 382.308594 207.601562 382.308594 194.015625 Z M 382.308594 194.015625 "/>
<path style=" stroke:none;fill-rule:nonzero;fill:rgb(62.352943%,69.803923%,92.941177%);fill-opacity:1;" d="M 83.316406 133.917969 C 68.082031 109.398438 73.3125 77.394531 95.554688 59 C 117.800781 40.601562 150.214844 41.472656 171.441406 61.035156 C 188.457031 90.007812 187.636719 118.078125 157.554688 139.3125 C 130.453125 155.46875 101.332031 155.375 83.316406 133.917969 Z M 83.316406 133.917969 "/>
<path style=" stroke:none;fill-rule:nonzero;fill:rgb(27.450982%,28.627452%,39.607844%);fill-opacity:1;" d="M 189.636719 110.285156 C 191.832031 91.902344 185.058594 73.582031 171.429688 61.050781 C 180.625 85.21875 173.40625 112.558594 153.480469 129.035156 C 133.558594 145.515625 105.351562 147.476562 83.335938 133.910156 C 96.261719 154.746094 120.941406 165.136719 144.878906 159.816406 C 168.8125 154.496094 186.769531 134.632812 189.652344 110.285156 Z M 189.636719 110.285156 "/>
<path style=" stroke:none;fill-rule:nonzero;fill:rgb(27.450982%,28.627452%,39.607844%);fill-opacity:1;" d="M 240.539062 345.890625 L 259.445312 364.796875 C 259.445312 364.796875 478.480469 282.863281 468.839844 93.289062 C 468.839844 93.28125 442.183594 270.824219 240.539062 345.890625 Z M 240.539062 345.890625 "/>
<path style=" stroke:none;fill-rule:nonzero;fill:rgb(27.450982%,28.627452%,39.607844%);fill-opacity:1;" d="M 212.859375 118.238281 C 213.175781 118.390625 213.472656 118.574219 213.746094 118.792969 C 229.398438 131.171875 234.859375 139.847656 231.460938 146.914062 C 227.746094 154.636719 215.800781 155.347656 192.695312 149.207031 C 173.453125 144.097656 149.1875 134.707031 124.363281 122.769531 C 99.539062 110.832031 77.054688 97.730469 61.050781 85.898438 C 41.839844 71.679688 34.9375 61.90625 38.640625 54.1875 C 42.007812 47.191406 52 46 71.042969 50.320312 C 72.335938 50.640625 73.445312 51.46875 74.121094 52.621094 C 74.792969 53.769531 74.976562 55.144531 74.625 56.429688 C 73.992188 59.160156 71.304688 60.894531 68.558594 60.34375 C 54.550781 57.164062 49.359375 58.101562 47.796875 58.640625 C 49.800781 65.597656 77.011719 88.515625 128.847656 113.441406 C 180.6875 138.371094 215.574219 145.324219 222.269531 142.546875 C 221.703125 140.964844 219.132812 136.21875 207.5 127.015625 C 205.347656 125.21875 205.015625 122.039062 206.75 119.835938 C 208.148438 117.917969 210.703125 117.253906 212.859375 118.238281 Z M 212.859375 118.238281 "/>
<path style=" stroke:none;fill-rule:nonzero;fill:rgb(27.450982%,28.627452%,39.607844%);fill-opacity:1;" d="M 94.285156 53.15625 C 80.742188 63.617188 71.957031 79.074219 69.902344 96.0625 C 68.234375 110.222656 71.414062 124.53125 78.921875 136.652344 C 78.980469 136.742188 79.054688 136.851562 79.136719 136.953125 C 89.214844 153.050781 106.058594 163.703125 124.921875 165.910156 C 127.425781 166.207031 129.945312 166.359375 132.464844 166.359375 C 164.273438 166.289062 191.019531 142.476562 194.773438 110.890625 C 197.570312 87.339844 185.144531 47.558594 139.878906 41.058594 C 123.667969 38.730469 107.210938 43.097656 94.285156 53.15625 Z M 184.5 109.675781 C 181.875 131.820312 165.550781 149.890625 143.785156 154.746094 C 122.023438 159.601562 99.566406 150.183594 87.773438 131.257812 C 87.71875 131.167969 87.648438 131.066406 87.574219 130.964844 C 81.34375 120.90625 78.734375 109.023438 80.175781 97.28125 C 81.898438 83.058594 89.253906 70.121094 100.59375 61.363281 C 111.308594 53.015625 124.960938 49.382812 138.410156 51.300781 C 180.964844 57.414062 186.066406 96.472656 184.5 109.675781 Z M 184.5 109.675781 "/>
<path style=" stroke:none;fill-rule:nonzero;fill:rgb(27.450982%,28.627452%,39.607844%);fill-opacity:1;" d="M 469.105469 88.113281 C 425.433594 85.734375 381.992188 95.898438 343.914062 117.414062 C 312.96875 134.695312 284.0625 159.480469 258 191.070312 C 249.320312 201.585938 241.574219 212.109375 234.699219 222.257812 C 234.546875 222.328125 234.398438 222.378906 234.257812 222.464844 L 228.300781 226.039062 C 222.132812 229.742188 215.375 232.355469 208.320312 233.761719 L 185.933594 238.238281 C 169.832031 241.394531 155.597656 250.710938 146.269531 264.210938 C 138.164062 276.207031 133.335938 290.601562 131.917969 306.992188 C 131.746094 309.050781 132.816406 311.015625 134.636719 311.988281 C 136.457031 312.964844 138.683594 312.761719 140.304688 311.476562 C 155.980469 300.292969 176.496094 298.492188 193.878906 306.78125 C 193.992188 306.832031 194.109375 306.855469 194.226562 306.898438 L 255.117188 367.789062 C 269.074219 398.007812 251.410156 420.851562 250.652344 421.804688 C 249.40625 423.355469 249.160156 425.488281 250.019531 427.28125 C 250.878906 429.078125 252.691406 430.222656 254.683594 430.222656 C 254.835938 430.222656 254.984375 430.222656 255.136719 430.203125 C 271.527344 428.789062 285.917969 423.957031 297.914062 415.851562 C 311.414062 406.523438 320.734375 392.292969 323.886719 376.191406 L 328.363281 353.800781 C 329.773438 346.746094 332.386719 339.988281 336.089844 333.824219 L 339.65625 327.875 C 339.742188 327.726562 339.796875 327.574219 339.867188 327.425781 C 350.015625 320.546875 360.539062 312.800781 371.054688 304.125 C 402.648438 278.058594 427.429688 249.160156 444.710938 218.207031 C 466.222656 180.128906 476.390625 136.6875 474.007812 93.019531 C 474.113281 91.6875 473.628906 90.378906 472.6875 89.4375 C 471.742188 88.492188 470.433594 88.007812 469.105469 88.113281 Z M 143.691406 297.496094 C 145.53125 287.675781 149.324219 278.328125 154.84375 270.003906 C 162.640625 258.757812 174.527344 251 187.960938 248.386719 L 210.351562 243.910156 C 214.757812 243.023438 219.070312 241.734375 223.238281 240.058594 C 212.273438 257.898438 202.660156 276.539062 194.488281 295.824219 C 178.070312 289.226562 159.636719 289.832031 143.691406 297.496094 Z M 266.167969 197.429688 C 322.171875 129.65625 388.253906 96.328125 462.605469 98.234375 C 459.675781 111.789062 450.199219 147.851562 425.613281 189.199219 C 397.25 236.910156 342.371094 301.523438 241.816406 339.851562 L 203.390625 301.425781 C 219.28125 263.960938 240.417969 228.945312 266.167969 197.429688 Z M 318.210938 351.773438 L 313.734375 374.164062 C 311.121094 387.601562 303.367188 399.484375 292.117188 407.28125 C 283.792969 412.804688 274.449219 416.597656 264.632812 418.4375 C 272.296875 402.488281 272.902344 384.050781 266.300781 367.636719 C 285.582031 359.464844 304.222656 349.855469 322.0625 338.886719 C 320.386719 343.054688 319.097656 347.371094 318.210938 351.773438 Z M 364.691406 295.957031 C 333.175781 321.707031 298.160156 342.84375 260.695312 358.734375 L 249.824219 347.859375 C 350.632812 308.199219 405.964844 242.660156 434.761719 194.078125 C 445.394531 176.179688 454.394531 157.363281 461.652344 137.855469 C 453.050781 196.738281 420.59375 249.769531 364.691406 295.953125 Z M 364.691406 295.957031 "/>
</g>
</svg>
